<svg width="128" height="128" viewBox="0 0 128 128" fill="none" xmlns="http://www.w3.org/2000/svg">
  <rect width="128" height="128" rx="28" fill="url(#paint0_linear)"/>
  <rect x="28" y="32" width="22" height="22" rx="4" fill="white" fill-opacity="0.2"/>
  <rect x="53" y="32" width="22" height="22" rx="4" fill="white" fill-opacity="0.2"/>
  <rect x="78" y="32" width="22" height="22" rx="4" fill="white" fill-opacity="0.2"/>
  <rect x="28" y="57" width="22" height="22" rx="4" fill="white" fill-opacity="0.2"/>
  <rect x="53" y="57" width="22" height="22" rx="4" fill="white" fill-opacity="0.9"/>
  <rect x="78" y="57" width="22" height="22" rx="4" fill="white" fill-opacity="0.2"/>
  <rect x="28" y="82" width="22" height="22" rx="4" fill="white" fill-opacity="0.2"/>
  <rect x="53" y="82" width="22" height="22" rx="4" fill="white" fill-opacity="0.2"/>
  <rect x="78" y="82" width="22" height="22" rx="4" fill="white" fill-opacity="0.6"/>
  
  <!-- AI Sparkle Icon -->
  <path d="M102 44L98.5 35.5L90 32L98.5 28.5L102 20L105.5 28.5L114 32L105.5 35.5L102 44Z" fill="#FCD34D"/>
  <path d="M108 58L106.25 53.75L102 52L106.25 50.25L108 46L109.75 50.25L114 52L109.75 53.75L108 58Z" fill="#FDE68A"/>

  <defs>
    <linearGradient id="paint0_linear" x1="0" y1="0" x2="128" y2="128" gradientUnits="userSpaceOnUse">
      <stop stop-color="#2563EB"/>
      <stop offset="1" stop-color="#4F46E5"/>
    </linearGradient>
  </defs>
</svg>
